<?xml version="1.0" standalone="no"?>
<svg xmlns="http://www.w3.org/2000/svg" viewBox="0 0 76 70" width="76" height="70"><g fill="#2d2d2d" color="#2d2d2d" transform="translate(20.036 0) scale(0.7446809) "><svg width="47.0" height="46.0" x="0.0" y="0.0" viewBox="0 0 47 46"><path fill="currentColor" fill-rule="nonzero" d="M44.78 1.64c-3.27-3.27-12.02-.08-21.36 7.22-9.34-7.3-18.09-10.5-21.36-7.22C-1.22 4.91 1.98 13.66 9.27 23 1.98 32.34-1.22 41.09 2.06 44.37c3.27 3.27 12.02.08 21.36-7.22 9.34 7.29 18.09 10.49 21.36 7.22 3.27-3.27.08-12.02-7.22-21.36 7.3-9.35 10.5-18.1 7.22-21.37zm-3.69 2.48c.69 0 .98.14 1.02.18.19.19.68 2.33-1.68 7.26-1.28 2.67-3.1 5.54-5.31 8.44-1.3-1.51-2.7-3.02-4.2-4.51-1.49-1.49-3-2.89-4.51-4.19 6.23-4.72 11.69-7.18 14.68-7.18zM32.71 23a80.65 80.65 0 0 1-9.29 9.29 82.406 82.406 0 0 1-4.84-4.45 80.65 80.65 0 0 1-4.45-4.83 79.34 79.34 0 0 1 4.45-4.84 84.12 84.12 0 0 1 4.83-4.46 79.34 79.34 0 0 1 9.3 9.29zM4.54 5.33c0-.69.14-.98.18-1.02.19-.19 2.33-.68 7.26 1.69 2.67 1.28 5.54 3.1 8.44 5.31a87.109 87.109 0 0 0-4.51 4.2c-1.49 1.49-2.89 3-4.19 4.51C7 13.78 4.54 8.32 4.54 5.33zm1.21 36.55c-.69 0-.99-.15-1.02-.18-.19-.19-.68-2.33 1.69-7.26 1.28-2.67 3.1-5.54 5.31-8.44 1.31 1.51 2.71 3.02 4.2 4.51 1.49 1.49 3 2.89 4.51 4.19-6.24 4.73-11.7 7.18-14.69 7.18zm36.55-1.21c0 .69-.15.98-.18 1.02-.19.19-2.33.68-7.26-1.68-2.67-1.28-5.54-3.1-8.44-5.31 1.51-1.3 3.02-2.7 4.51-4.2 1.49-1.49 2.89-3 4.2-4.51 4.71 6.23 7.17 11.69 7.17 14.68z"></path></svg></g><line x1="21.086000000000002" y1="40.25531914893617" x2="53.986000000000004" y2="40.25531914893617" stroke="#2d2d2d" stroke-linecap="round"></line><path fill="#2d2d2d" fill-rule="nonzero" d="M11.26 15.96L11.26 18.94L5.21 18.94Q2.33 18.94 1.16 17.94Q0 16.94 0 14.42L0 14.42L0 1.85L11.26 1.85L11.26 4.82L3.34 4.82L3.34 8.83L8.88 8.83L8.64 11.81L3.34 11.81L3.34 14.18Q3.34 15.19 3.79 15.58Q4.25 15.96 5.45 15.96L5.45 15.96L11.26 15.96ZM17.28 0.89L17.28 18.94L14.16 18.96L14.16 0.89L17.28 0.89ZM23.64 0.89L23.64 18.94L20.52 18.96L20.52 0.89L23.64 0.89ZM28.58 0Q29.71 0 30.05 0.35Q30.38 0.70 30.38 1.81Q30.38 2.93 30.04 3.28Q29.69 3.62 28.57 3.62Q27.46 3.62 27.11 3.26Q26.76 2.90 26.76 1.80Q26.76 0.70 27.11 0.35Q27.46 0 28.58 0ZM30.12 5.74L30.12 18.94L27.00 18.94L27.00 5.74L30.12 5.74ZM44.54 11.71L44.54 11.71Q44.54 17.06 41.78 18.55L41.78 18.55Q40.66 19.15 39.02 19.15L39.02 19.15L36.72 17.66L36.72 23.02L33.60 23.02L33.60 5.33L39.74 5.33Q42.53 5.33 43.54 6.90Q44.54 8.47 44.54 11.71ZM41.42 12.19L41.42 12.19Q41.42 8.14 38.83 8.14L38.83 8.14L36.72 8.14L36.72 14.50L38.83 15.86Q40.22 15.86 40.82 14.99Q41.42 14.11 41.42 12.19ZM56.45 15.14L56.45 15.14L56.45 15.50Q56.30 17.30 54.92 18.22Q53.54 19.13 51.48 19.13L51.48 19.13Q48.43 19.13 47.21 18.02L47.21 18.02Q46.08 17.02 46.08 15.05L46.08 15.05L46.08 14.76L48.91 14.76Q48.91 15.86 49.49 16.27Q50.06 16.68 51.48 16.68L51.48 16.68Q53.40 16.68 53.40 15.29L53.40 15.29Q53.40 14.14 52.73 13.75L52.73 13.75Q52.42 13.56 51.94 13.46L51.94 13.46L49.51 13.06Q46.34 12.55 46.34 9.10L46.34 9.10Q46.34 7.18 47.75 6.11Q49.15 5.04 51.31 5.04L51.31 5.04Q56.23 5.04 56.23 9.29L56.23 9.29L56.23 9.60L53.52 9.60Q53.47 8.47 52.92 8.06Q52.37 7.66 51.37 7.66Q50.38 7.66 49.87 8.05Q49.37 8.45 49.37 8.93L49.37 8.93Q49.37 10.30 50.47 10.49L50.47 10.49L53.38 11.02Q56.45 11.59 56.45 15.14ZM60.65 0Q61.78 0 62.11 0.35Q62.45 0.70 62.45 1.81Q62.45 2.93 62.10 3.28Q61.75 3.62 60.64 3.62Q59.52 3.62 59.17 3.26Q58.82 2.90 58.82 1.80Q58.82 0.70 59.17 0.35Q59.52 0 60.65 0ZM62.18 5.74L62.18 18.94L59.06 18.94L59.06 5.74L62.18 5.74ZM75.07 15.14L75.07 15.14L75.07 15.50Q74.93 17.30 73.55 18.22Q72.17 19.13 70.10 19.13L70.10 19.13Q67.06 19.13 65.83 18.02L65.83 18.02Q64.70 17.02 64.70 15.05L64.70 15.05L64.70 14.76L67.54 14.76Q67.54 15.86 68.11 16.27Q68.69 16.68 70.10 16.68L70.10 16.68Q72.02 16.68 72.02 15.29L72.02 15.29Q72.02 14.14 71.35 13.75L71.35 13.75Q71.04 13.56 70.56 13.46L70.56 13.46L68.14 13.06Q64.97 12.55 64.97 9.10L64.97 9.10Q64.97 7.18 66.37 6.11Q67.78 5.04 69.94 5.04L69.94 5.04Q74.86 5.04 74.86 9.29L74.86 9.29L74.86 9.60L72.14 9.60Q72.10 8.47 71.54 8.06Q70.99 7.66 70.00 7.66Q69 7.66 68.50 8.05Q67.99 8.45 67.99 8.93L67.99 8.93Q67.99 10.30 69.10 10.49L69.10 10.49L72 11.02Q75.07 11.59 75.07 15.14Z" transform="translate(0, 46.256)"></path></svg>