<?xml version="1.0" standalone="no"?>
<svg xmlns="http://www.w3.org/2000/svg" viewBox="0 0 100.459 116" width="100.459" height="116"><polygon fill="none" stroke="#2d2d2d" stroke-width="3" points="98.959,29.75 98.959,86.25 50.2295,114.5 1.5,86.25 1.5,29.75 50.2295,1.5"></polygon><g fill="#2d2d2d" color="#2d2d2d" transform="translate(28.2295 22.5) scale(0.9361703)"><svg width="47.0" height="46.0" x="0.0" y="0.0" viewBox="0 0 47 46"><path fill="currentColor" fill-rule="nonzero" d="M44.78 1.64c-3.27-3.27-12.02-.08-21.36 7.22-9.34-7.3-18.09-10.5-21.36-7.22C-1.22 4.91 1.98 13.66 9.27 23 1.98 32.34-1.22 41.09 2.06 44.37c3.27 3.27 12.02.08 21.36-7.22 9.34 7.29 18.09 10.49 21.36 7.22 3.27-3.27.08-12.02-7.22-21.36 7.3-9.35 10.5-18.1 7.22-21.37zm-3.69 2.48c.69 0 .98.14 1.02.18.19.19.68 2.33-1.68 7.26-1.28 2.67-3.1 5.54-5.31 8.44-1.3-1.51-2.7-3.02-4.2-4.51-1.49-1.49-3-2.89-4.51-4.19 6.23-4.72 11.69-7.18 14.68-7.18zM32.71 23a80.65 80.65 0 0 1-9.29 9.29 82.406 82.406 0 0 1-4.84-4.45 80.65 80.65 0 0 1-4.45-4.83 79.34 79.34 0 0 1 4.45-4.84 84.12 84.12 0 0 1 4.83-4.46 79.34 79.34 0 0 1 9.3 9.29zM4.54 5.33c0-.69.14-.98.18-1.02.19-.19 2.33-.68 7.26 1.69 2.67 1.28 5.54 3.1 8.44 5.31a87.109 87.109 0 0 0-4.51 4.2c-1.49 1.49-2.89 3-4.19 4.51C7 13.78 4.54 8.32 4.54 5.33zm1.21 36.55c-.69 0-.99-.15-1.02-.18-.19-.19-.68-2.33 1.69-7.26 1.28-2.67 3.1-5.54 5.31-8.44 1.31 1.51 2.71 3.02 4.2 4.51 1.49 1.49 3 2.89 4.51 4.19-6.24 4.73-11.7 7.18-14.69 7.18zm36.55-1.21c0 .69-.15.98-.18 1.02-.19.19-2.33.68-7.26-1.68-2.67-1.28-5.54-3.1-8.44-5.31 1.51-1.3 3.02-2.7 4.51-4.2 1.49-1.49 2.89-3 4.2-4.51 4.71 6.23 7.17 11.69 7.17 14.68z"></path></svg></g><path fill="#2d2d2d" fill-rule="nonzero" d="M13.13 16.46L13.13 19.94L6.08 19.94Q2.72 19.94 1.36 18.77Q0 17.61 0 14.67L0 14.67L0 0L13.13 0L13.13 3.47L3.89 3.47L3.89 8.15L10.36 8.15L10.08 11.62L3.89 11.62L3.89 14.39Q3.89 15.57 4.42 16.02Q4.96 16.46 6.36 16.46L6.36 16.46L13.13 16.46Z" transform="translate(43.664, 73.564)"></path></svg>