<svg viewBox="0 0 41 36" version="1.1" style="fill-rule:evenodd;clip-rule:evenodd;stroke-linecap:round;stroke-linejoin:round;stroke-miterlimit:1.5;">
    <path d="M11.29,13.841C12.729,13.841 13.896,15.009 13.896,16.447C13.896,17.886 12.729,19.054 11.29,19.054C9.852,19.054 8.684,17.886 8.684,16.447C8.684,15.009 9.852,13.841 11.29,13.841ZM20.212,13.841C21.651,13.841 22.819,15.009 22.819,16.447C22.819,17.886 21.651,19.054 20.212,19.054C18.774,19.054 17.606,17.886 17.606,16.447C17.606,15.009 18.774,13.841 20.212,13.841ZM29.204,13.841C30.643,13.841 31.81,15.009 31.81,16.447C31.81,17.886 30.643,19.054 29.204,19.054C27.766,19.054 26.598,17.886 26.598,16.447C26.598,15.009 27.766,13.841 29.204,13.841Z" style="stroke-opacity:0;stroke-width:5px;"/>
    <path d="M21.186,1.508C31.165,1.758 39.001,8.648 38.933,16.413C38.8,22.785 34.237,27.892 27.016,30.303C24.427,30.923 18.965,32.455 12.467,29.72C8.591,32.764 5.017,33.99 1.678,33.802C3.99,30.193 4.082,30.224 5.913,26.071C-0.069,20.659 0.007,11.384 6.287,6.226C10.415,2.834 15.917,1.378 21.186,1.508Z" style="fill:none;stroke-width:3px;"/>
</svg>
