<svg xmlns="http://www.w3.org/2000/svg" height="35px" viewBox="0 0 45 42" style="fill-rule:evenodd;clip-rule:evenodd;stroke-linejoin:round;stroke-miterlimit:2;">
    <path d="M43.63,18.673L36.905,11.948L36.905,4.179C36.905,2.775 35.766,1.636 34.36,1.636C32.956,1.636 31.818,2.775 31.818,4.179L31.818,6.861L26.81,1.854C24.335,-0.621 20.03,-0.616 17.56,1.858L0.744,18.673C-0.248,19.668 -0.248,21.277 0.744,22.27C1.738,23.265 3.35,23.265 4.343,22.27L21.157,5.455C21.705,4.91 22.67,4.91 23.215,5.453L40.032,22.27C40.53,22.768 41.18,23.015 41.83,23.015C42.482,23.015 43.133,22.767 43.63,22.27C44.623,21.277 44.623,19.668 43.63,18.673ZM23.071,10.282C22.582,9.794 21.791,9.794 21.304,10.282L6.513,25.069C6.28,25.302 6.147,25.621 6.147,25.953L6.147,36.738C6.147,39.269 8.199,41.321 10.73,41.321L18.053,41.321L18.053,29.98L26.32,29.98L26.32,41.321L33.643,41.321C36.174,41.321 38.226,39.269 38.226,36.738L38.226,25.953C38.226,25.621 38.095,25.302 37.86,25.069L23.071,10.282Z" style="fill-rule:nonzero;"/>
</svg>
