<?xml version="1.0" standalone="no"?>
<svg xmlns="http://www.w3.org/2000/svg" viewBox="0 0 36.45 42.088" width="36.45" height="42.088"><polygon fill="none" stroke="#2d2d2d" stroke-width="3" points="34.95,11.272 34.95,30.816000000000003 18.225,40.588 1.5,30.816000000000003 1.5,11.272 18.225,1.5"></polygon><path fill="#2d2d2d" fill-rule="nonzero" d="M11.26 14.11L11.26 17.09L5.21 17.09Q2.33 17.09 1.16 16.09Q0 15.10 0 12.58L0 12.58L0 0L11.26 0L11.26 2.98L3.34 2.98L3.34 6.98L8.88 6.98L8.64 9.96L3.34 9.96L3.34 12.34Q3.34 13.34 3.79 13.73Q4.25 14.11 5.45 14.11L5.45 14.11L11.26 14.11Z" transform="translate(12.598, 12.5)"></path></svg>