<svg id="Capa_1" enable-background="new 0 0 512 512" height="512" viewBox="0 0 512 512" width="512" xmlns="http://www.w3.org/2000/svg"><g id="XMLID_648_"><path id="XMLID_1379_" d="m313.997 101.081c-85.423 0-154.919 69.496-154.919 154.919s69.497 154.919 154.919 154.919 154.919-69.496 154.919-154.919-69.497-154.919-154.919-154.919zm0 289.838c-74.395 0-134.919-60.524-134.919-134.919s60.524-134.919 134.919-134.919 134.919 60.524 134.919 134.919-60.524 134.919-134.919 134.919z"/><path id="XMLID_1380_" d="m408.944 246h-77.642c-3.46-5.974-9.906-10.003-17.306-10.003-1.789 0-3.513.257-5.163.698l-18.36-18.36c-3.905-3.904-10.237-3.904-14.142 0-3.905 3.905-3.905 10.237 0 14.143l18.36 18.359c-.44 1.65-.697 3.375-.697 5.163 0 11.047 8.956 20.003 20.003 20.003 7.4 0 13.846-4.029 17.306-10.003h77.642c5.523 0 10-4.478 10-10s-4.478-10-10.001-10z"/><path id="XMLID_1384_" d="m313.997 57.997c-65 0-122.78 31.486-158.903 80.003h-91.094c-5.523 0-10 4.478-10 10s4.477 10 10 10h77.996c-6.152 10.755-11.324 22.139-15.394 34.031-.202-.012-.403-.031-.608-.031h-115.994c-5.523 0-10 4.478-10 10s4.477 10 10 10h110.928c-2.509 11.016-4.102 22.377-4.683 34h-38.243c-5.523 0-10 4.478-10 10s4.477 10 10 10h38.243c1.594 31.886 10.769 61.808 25.751 88h-131.996c-5.523 0-10 4.478-10 10s4.477 10 10 10h145.094c36.122 48.518 93.903 80.003 158.903 80.003 109.179 0 198.003-88.823 198.003-198.003s-88.824-198.003-198.003-198.003zm0 376.006c-98.151 0-178.003-79.852-178.003-178.003s79.851-178.003 178.003-178.003 178.003 79.852 178.003 178.003-79.852 178.003-178.003 178.003z"/><path id="XMLID_1385_" d="m314 340.95c-2.64 0-5.21 1.069-7.08 2.93-1.86 1.86-2.92 4.439-2.92 7.07 0 2.63 1.06 5.21 2.92 7.069 1.87 1.86 4.45 2.931 7.08 2.931s5.2-1.07 7.07-2.931c1.86-1.859 2.93-4.439 2.93-7.069 0-2.631-1.07-5.21-2.93-7.07s-4.44-2.93-7.07-2.93z"/><path id="XMLID_1386_" d="m314 171.05c2.63 0 5.21-1.07 7.07-2.93s2.93-4.44 2.93-7.07-1.07-5.21-2.93-7.07c-1.86-1.859-4.44-2.93-7.07-2.93-2.64 0-5.21 1.07-7.07 2.93-1.87 1.86-2.93 4.44-2.93 7.07s1.06 5.21 2.93 7.07c1.86 1.859 4.44 2.93 7.07 2.93z"/><path id="XMLID_1387_" d="m219.05 246c-2.63 0-5.21 1.069-7.07 2.93-1.86 1.86-2.93 4.44-2.93 7.07s1.07 5.21 2.93 7.069c1.86 1.86 4.44 2.931 7.07 2.931s5.21-1.07 7.07-2.931c1.86-1.859 2.93-4.439 2.93-7.069s-1.07-5.21-2.93-7.07c-1.86-1.861-4.44-2.93-7.07-2.93z"/><path id="XMLID_1388_" d="m10 320h54c5.523 0 10-4.478 10-10s-4.477-10-10-10h-54c-5.523 0-10 4.478-10 10s4.477 10 10 10z"/></g></svg>