<svg viewBox="0 0 36 36" style="fill-rule:evenodd;clip-rule:evenodd;stroke-linecap:round;stroke-linejoin:round;stroke-miterlimit:1.5;">
    <path d="M17.757,1.5C26.73,1.5 34.014,8.741 34.014,17.66C34.014,26.58 26.73,33.821 17.757,33.821C8.785,33.821 1.5,26.58 1.5,17.66C1.5,8.741 8.785,1.5 17.757,1.5ZM17.84,9.24C20.326,9.24 22.344,11.246 22.344,13.717C22.344,16.189 20.326,18.195 17.84,18.195C15.354,18.195 13.336,16.189 13.336,13.717C13.336,11.246 15.354,9.24 17.84,9.24ZM6.902,29.301C9.353,25.68 12.276,23.953 14.055,24.008L22.344,24.008C24.254,24.144 27.291,26.703 28.663,29.641" style="fill:none;stroke-width:3px;"/>
</svg>
