<?xml version="1.0" encoding="UTF-8" standalone="no"?>
<!DOCTYPE svg PUBLIC "-//W3C//DTD SVG 1.1//EN" "http://www.w3.org/Graphics/SVG/1.1/DTD/svg11.dtd">
<svg viewBox="0 0 512 512" version="1.1" xmlns="http://www.w3.org/2000/svg" xmlns:xlink="http://www.w3.org/1999/xlink" xml:space="preserve" xmlns:serif="http://www.serif.com/" style="fill-rule:evenodd;clip-rule:evenodd;stroke-linejoin:round;stroke-miterlimit:2;">
    <path d="M512,256C512,114.516 397.503,0 256,0C114.517,0 0,114.496 0,256C0,393.856 110.237,509.735 251.891,511.95C254.297,512.058 259.523,511.957 259.624,511.956C259.666,511.957 259.844,511.954 259.891,511.953C399.637,509.883 512,396.004 512,256ZM256,15C389.193,15 497,122.788 497,256C497,311.528 478.333,364.18 443.991,406.819C443.394,379.946 425.969,356.601 400.234,348.452L351.713,333.09C348.967,330.74 349.69,331.752 305.021,309.62L305.021,288.833C324.496,275.005 337.982,253.176 340.462,228.006C349.709,226.438 356.774,218.37 356.774,208.684L356.774,132.353C356.774,115.546 343.101,101.873 326.294,101.873L325.52,101.873C325.376,101.873 325.259,101.756 325.259,101.612C325.259,84.805 311.586,71.132 294.779,71.132L215.587,71.132C182.288,71.132 155.198,98.222 155.198,131.521C155.198,135.663 158.556,139.021 162.698,139.021C166.84,139.021 170.198,135.663 170.198,131.521C170.198,106.493 190.559,86.132 215.587,86.132L294.779,86.132C303.315,86.132 310.259,93.076 310.259,101.612C310.259,110.027 317.105,116.873 325.52,116.873L326.294,116.873C334.83,116.873 341.774,123.817 341.774,132.353L341.774,175.035L333.395,175.035C328.713,175.035 324.904,171.226 324.904,166.545L324.904,157.794C324.904,141.16 308.665,129.425 292.873,134.645C269.095,142.504 242.903,142.506 219.094,134.641C203.299,129.425 187.066,141.16 187.066,157.791L187.066,166.545C187.066,171.227 183.257,175.036 178.576,175.036L170.197,175.036L170.197,166.183C170.197,162.041 166.839,158.683 162.697,158.683C158.555,158.683 155.197,162.041 155.197,166.183L155.197,208.685C155.197,218.372 162.261,226.439 171.509,228.008C173.988,253.179 187.475,275.007 206.949,288.835L206.949,309.63C162.372,331.718 162.961,330.788 160.264,333.1L111.767,348.454C86.032,356.603 68.607,379.948 68.01,406.821C33.667,364.18 15,311.528 15,256C15,122.806 122.788,15 256,15ZM170.014,391.08L175.843,385.262C181.927,379.189 183.366,369.974 179.425,362.335L170.178,344.406L200.484,329.517C197.259,343.006 197.364,357.83 198.917,371.724C198.918,371.735 198.92,371.746 198.921,371.756C202.8,406.398 216.941,445.692 231.073,477.55C207.8,454.13 176.698,419.68 168.865,395.799C168.32,394.139 168.761,392.331 170.014,391.08ZM170.196,190.035L178.575,190.035C191.528,190.035 202.065,179.497 202.065,166.544L202.065,157.79C202.065,151.419 208.271,146.865 214.418,148.893C241.232,157.75 270.766,157.749 297.58,148.887C303.655,146.88 309.904,151.392 309.904,157.794L309.904,166.545C309.904,179.498 320.442,190.035 333.395,190.035L341.774,190.035L341.774,208.684C341.774,211.22 339.711,213.282 337.175,213.282C331.141,213.282 326.115,218.018 325.734,224.065C323.42,260.76 292.783,289.504 255.985,289.504C219.188,289.504 188.55,260.76 186.236,224.065C185.855,218.019 180.829,213.282 174.795,213.282C172.259,213.282 170.197,211.22 170.197,208.684L170.197,190.035L170.196,190.035ZM255.993,495.285C251.126,485.523 244.554,471.616 237.98,455.479L250.296,407.039L261.703,407.039L274.011,455.463C267.425,471.634 260.845,485.555 255.993,495.285ZM246.134,361.321C241.889,364.867 233.181,372.141 226.373,377.827C224.952,379.014 222.917,379.007 221.511,377.852L213.584,368.051C212.273,354.904 212.403,340.37 216.509,327.925L246.134,361.321ZM223.926,393.73C225.838,393.73 227.749,393.421 229.596,392.835L236.282,401.285L228.729,430.992C224.403,418.519 220.503,405.514 217.636,392.624C219.667,393.347 221.792,393.73 223.926,393.73ZM263.777,392.04L248.094,392.04L241.991,384.327L256.816,371.943L270.226,383.409L263.777,392.04ZM285.892,377.069L267.431,361.284L295.562,328.201C299.571,340.559 299.687,354.875 298.427,367.751L290.763,377.143C289.341,378.289 287.304,378.276 285.892,377.069ZM255.985,304.504C268.054,304.504 279.573,301.947 290.021,297.352L290.021,311.56L256.752,350.686L221.948,311.452L221.948,297.351C232.396,301.947 243.915,304.504 255.985,304.504ZM283.263,430.97L275.686,401.161L282.498,392.044C284.408,392.676 286.389,393.006 288.373,393.006C290.445,393.006 292.509,392.642 294.489,391.958C291.627,404.99 287.704,418.161 283.263,430.97ZM82.98,423.742L82.98,408.244C82.98,387.344 96.368,369.062 116.293,362.754L156.278,350.095C156.678,351.029 156.267,350.128 166.094,369.212C167.029,371.024 166.688,373.208 165.246,374.647L159.417,380.465C154.134,385.738 152.292,393.406 154.612,400.475C164.185,429.656 201.845,470.066 227.692,495.353C172.814,488.971 122.162,464.125 82.98,423.742ZM284.291,495.354C298.23,481.719 315.701,463.603 330.296,445.255C332.875,442.013 332.337,437.295 329.095,434.716C325.853,432.138 321.136,432.675 318.556,435.917C306.779,450.723 293.011,465.429 280.879,477.618C295.054,445.678 309.248,406.251 313.091,371.502C313.092,371.489 313.094,371.476 313.095,371.464C314.618,357.663 314.708,342.965 311.5,329.518L341.806,344.407L332.559,362.336C328.618,369.977 330.058,379.19 336.142,385.264L341.97,391.081C343.223,392.332 343.663,394.14 343.119,395.8C341.944,399.382 340.156,403.405 337.805,407.758C335.836,411.403 337.195,415.953 340.839,417.921C344.484,419.89 349.034,418.531 351.002,414.887C353.777,409.751 355.92,404.901 357.372,400.474C359.691,393.405 357.85,385.738 352.567,380.464L346.739,374.647C345.297,373.207 344.956,371.022 345.89,369.211C355.645,350.266 355.312,351.014 355.708,350.09L395.706,362.753C415.632,369.062 429.019,387.343 429.019,408.244L429.019,423.742C389.925,464.035 339.306,488.961 284.291,495.354Z" style="fill:#fcfcfc;fill-rule:nonzero;"/>
</svg>
